<svg class="svg-icon" style="width: 1em; height: 1em;vertical-align: middle;fill: currentColor;overflow: hidden;" viewBox="0 0 1024 1024" version="1.1" xmlns="http://www.w3.org/2000/svg"><path d="M512 0q104 0 198.857143 40.571429t163.428571 109.142857 109.142857 163.428571 40.571429 198.857143-40.571429 198.857143-109.142857 163.428571-163.428571 109.142857-198.857143 40.571429-198.857143-40.571429-163.428571-109.142857-109.142857-163.428571T0 512t40.571429-198.857143 109.142857-163.428571T313.142857 40.571429 512 0z m0 73.142857q-108.571429 0-206.285714 51.428572l110.857143 110.857142q46.857143-16 95.428571-16t95.428571 16l110.857143-110.857142q-97.714286-51.428571-206.285714-51.428572zM124.571429 718.285714l110.857142-110.857143q-16-46.857143-16-95.428571t16-95.428571L124.571429 305.714286q-51.428571 97.714286-51.428572 206.285714t51.428572 206.285714z m387.428571 232.571429q108.571429 0 206.285714-51.428572l-110.857143-110.857142q-46.857143 16-95.428571 16t-95.428571-16l-110.857143 110.857142q97.714286 51.428571 206.285714 51.428572z m0-219.428572q90.857143 0 155.142857-64.285714T731.428571 512t-64.285714-155.142857T512 292.571429 356.857143 356.857143 292.571429 512t64.285714 155.142857T512 731.428571z m276.571429-124l110.857142 110.857143q51.428571-97.714286 51.428572-206.285714t-51.428572-206.285714l-110.857142 110.857143q16 46.857143 16 95.428571t-16 95.428571z"  /></svg>